<svg xmlns="http://www.w3.org/2000/svg" xmlns:xlink="http://www.w3.org/1999/xlink" viewBox="0 0 20 20" overflow="visible"><g><path d="M 0 0 L 20 0 L 20 20 L 0 20 Z" fill="transparent"></path><path d="M 10 8.183 L 10 12.054 L 15.381 12.054 C 15.15 13.289 14.424 14.376 13.373 15.064 L 16.618 17.581 C 18.509 15.836 19.6 13.273 19.6 10.228 C 19.6 9.518 19.538 8.836 19.419 8.181 L 10 8.181 Z" fill="rgb(66,133,244)"></path><path d="M 4.395 11.902 L 3.663 12.464 L 1.071 14.481 C 2.718 17.745 6.09 20 10 20 C 12.7 20 14.963 19.109 16.619 17.581 L 13.373 15.064 C 12.481 15.664 11.345 16.026 10 16.026 C 7.4 16.026 5.191 14.272 4.4 11.909 L 4.396 11.902 Z" fill="rgb(52,168,83)"></path><path d="M 1.073 5.518 C 0.366 6.906 -0.001 8.442 0 10 C 0 11.618 0.391 13.136 1.073 14.481 C 1.073 14.49 4.4 11.9 4.4 11.9 C 4.2 11.3 4.081 10.663 4.081 10 C 4.081 9.336 4.2 8.7 4.4 8.1 Z" fill="rgb(251,188,5)"></path><path d="M 10 3.982 C 11.471 3.982 12.781 4.49 13.826 5.472 L 16.689 2.609 C 14.955 0.99 12.7 0 10 0 C 6.091 0 2.719 2.245 1.073 5.517 L 4.4 8.1 C 5.191 5.736 7.4 3.981 10 3.981 Z" fill="rgb(234,67,53)"></path></g></svg>
