<svg xmlns="http://www.w3.org/2000/svg" xmlns:xlink="http://www.w3.org/1999/xlink" viewBox="0 0 32 32" overflow="visible"><g><path d="M 0 16 C 0 7.163 7.163 0 16 0 C 24.837 0 32 7.163 32 16 C 32 24.835 24.837 32 16 32 C 7.163 32 0 24.837 0 16 Z" fill="rgb(32,128,141)"></path><path d="M 10.176 6.403 L 15.469 11.387 L 15.469 6.413 L 16.499 6.413 L 16.499 11.408 L 21.816 6.4 L 21.816 12.085 L 23.998 12.085 L 23.998 20.282 L 21.822 20.282 L 21.822 25.342 L 16.499 20.562 L 16.499 25.397 L 15.469 25.397 L 15.469 20.64 L 10.182 25.402 L 10.182 20.282 L 8 20.282 L 8 12.088 L 10.176 12.088 Z M 14.694 13.126 L 9.03 13.126 L 9.03 19.243 L 10.182 19.243 L 10.182 17.314 Z M 11.213 23.078 L 15.469 19.246 L 15.469 13.822 L 11.213 17.774 Z M 16.53 19.195 L 20.792 23.024 L 20.792 20.28 L 20.786 20.28 L 20.786 17.768 L 16.53 13.816 Z M 21.822 19.242 L 22.968 19.242 L 22.968 13.126 L 17.347 13.126 L 21.822 17.27 Z M 20.786 8.795 L 17.291 12.086 L 20.786 12.086 Z M 14.701 12.085 L 14.699 12.085 L 14.701 12.086 Z M 14.699 12.085 L 11.206 8.795 L 11.206 12.085 Z" fill="rgb(255,255,255)"></path></g></svg>
